<svg xmlns="http://www.w3.org/2000/svg" xmlns:xlink="http://www.w3.org/1999/xlink" width="1640" zoomAndPan="magnify" viewBox="0 0 1230 225" height="300" preserveAspectRatio="xMidYMid meet" version="1.0"><defs><g/></defs><g fill="#ffffff" fill-opacity="1"><g transform="translate(0.0678816, 176.872485)"><g><path d="M 145.296875 -55.449219 C 156.589844 -62.125 162.753906 -72.90625 162.753906 -87.28125 C 162.753906 -113.464844 143.757812 -128.355469 109.871094 -128.355469 L 10.523438 -128.355469 L 10.523438 0 L 67.515625 0 L 67.515625 -46.976562 L 90.617188 -46.976562 C 103.453125 -45.949219 110.640625 -39.53125 110.640625 -29.007812 L 110.640625 0 L 161.726562 0 L 161.726562 -21.050781 C 161.726562 -36.453125 156.078125 -48.261719 145.296875 -55.449219 Z M 98.320312 -79.066406 L 67.515625 -79.066406 L 67.515625 -94.46875 L 98.320312 -94.46875 C 107.046875 -94.46875 111.925781 -91.644531 111.925781 -86.511719 C 111.925781 -81.632812 107.046875 -79.066406 98.320312 -79.066406 Z M 98.320312 -79.066406 "/></g></g></g><g fill="#ffffff" fill-opacity="1"><g transform="translate(171.799663, 176.872485)"><g><path d="M 67.515625 -94.46875 L 146.578125 -94.46875 L 146.578125 -128.355469 L 10.523438 -128.355469 L 10.523438 0 L 146.578125 0 L 146.578125 -34.140625 L 67.515625 -34.140625 L 67.515625 -48.261719 L 146.578125 -48.261719 L 146.578125 -80.347656 L 67.515625 -80.347656 Z M 67.515625 -94.46875 "/></g></g></g><g fill="#ffffff" fill-opacity="1"><g transform="translate(328.899591, 176.872485)"><g><path d="M 61.097656 -128.355469 L 97.292969 -56.988281 L 134.257812 -128.355469 L 193.042969 -128.355469 L 125.53125 0 L 69.054688 0 L 2.566406 -128.355469 Z M 61.097656 -128.355469 "/></g></g></g><g fill="#ffffff" fill-opacity="1"><g transform="translate(524.504397, 176.872485)"><g><path d="M 91.386719 2.308594 C 144.269531 2.308594 174.046875 -21.820312 174.046875 -64.175781 C 174.046875 -106.535156 144.269531 -130.664062 91.386719 -130.664062 C 38.507812 -130.664062 8.472656 -106.535156 8.472656 -64.175781 C 8.472656 -21.820312 38.507812 2.308594 91.386719 2.308594 Z M 91.644531 -37.480469 C 74.445312 -37.480469 64.945312 -46.976562 64.945312 -64.175781 C 64.945312 -81.375 74.445312 -90.875 91.644531 -90.875 C 108.332031 -90.875 117.570312 -81.375 117.570312 -64.175781 C 117.570312 -46.976562 108.332031 -37.480469 91.644531 -37.480469 Z M 91.644531 -37.480469 "/></g></g></g><g fill="#ffffff" fill-opacity="1"><g transform="translate(707.274243, 176.872485)"><g><path d="M 146.578125 -39.789062 L 67.515625 -39.789062 L 67.515625 -128.355469 L 10.523438 -128.355469 L 10.523438 0 L 146.578125 0 Z M 146.578125 -39.789062 "/></g></g></g><g fill="#ffffff" fill-opacity="1"><g transform="translate(862.577274, 176.872485)"><g><path d="M 61.097656 -128.355469 L 97.292969 -56.988281 L 134.257812 -128.355469 L 193.042969 -128.355469 L 125.53125 0 L 69.054688 0 L 2.566406 -128.355469 Z M 61.097656 -128.355469 "/></g></g></g><g fill="#ffffff" fill-opacity="1"><g transform="translate(1058.182103, 176.872485)"><g><path d="M 145.296875 -55.449219 C 156.589844 -62.125 162.753906 -72.90625 162.753906 -87.28125 C 162.753906 -113.464844 143.757812 -128.355469 109.871094 -128.355469 L 10.523438 -128.355469 L 10.523438 0 L 67.515625 0 L 67.515625 -46.976562 L 90.617188 -46.976562 C 103.453125 -45.949219 110.640625 -39.53125 110.640625 -29.007812 L 110.640625 0 L 161.726562 0 L 161.726562 -21.050781 C 161.726562 -36.453125 156.078125 -48.261719 145.296875 -55.449219 Z M 98.320312 -79.066406 L 67.515625 -79.066406 L 67.515625 -94.46875 L 98.320312 -94.46875 C 107.046875 -94.46875 111.925781 -91.644531 111.925781 -86.511719 C 111.925781 -81.632812 107.046875 -79.066406 98.320312 -79.066406 Z M 98.320312 -79.066406 "/></g></g></g></svg>