<svg xmlns="http://www.w3.org/2000/svg" xmlns:xlink="http://www.w3.org/1999/xlink" width="1080" zoomAndPan="magnify" viewBox="0 0 810 809.999993" height="1080" preserveAspectRatio="xMidYMid meet" version="1.0"><defs><g/><clipPath id="ac7791b5e3"><path d="M 126.5625 0 L 683.4375 0 C 753.335938 0 810 56.664062 810 126.5625 L 810 683.4375 C 810 753.335938 753.335938 810 683.4375 810 L 126.5625 810 C 56.664062 810 0 753.335938 0 683.4375 L 0 126.5625 C 0 56.664062 56.664062 0 126.5625 0 Z M 126.5625 0 " clip-rule="nonzero"/></clipPath><clipPath id="2526c55abc"><path d="M 283 412 L 527 412 L 527 625.355469 L 283 625.355469 Z M 283 412 " clip-rule="nonzero"/></clipPath><clipPath id="692397370c"><path d="M 293.132812 446.679688 C 273.429688 479.140625 287.3125 510.734375 304.753906 527.503906 L 406.75 625.355469 L 506.589844 527.851562 C 522.8125 509.816406 529.03125 490.679688 525.578125 469.375 C 520.804688 439.902344 496.519531 417.035156 466.515625 413.769531 C 448.113281 411.789062 430.339844 416.996094 416.464844 428.523438 C 412.730469 431.628906 409.394531 435.09375 406.484375 438.863281 C 403.035156 434.574219 398.988281 430.648438 394.410156 427.167969 C 378.457031 415.042969 358.148438 410.230469 338.640625 413.972656 C 320.164062 417.542969 303.582031 429.460938 293.132812 446.679688 Z M 293.132812 446.679688 " clip-rule="nonzero"/></clipPath></defs><g clip-path="url(#ac7791b5e3)"><path stroke-linecap="butt" transform="matrix(0.75, 0, 0, 0.75, 0.0000035, 0.00002)" fill="none" stroke-linejoin="miter" d="M 168.750004 -0.0000266667 L 911.250041 -0.0000266667 C 1004.447963 -0.0000266667 1080.00005 75.55206 1080.00005 168.749982 L 1080.00005 911.250019 C 1080.00005 1004.447941 1004.447963 1080.000028 911.250041 1080.000028 L 168.750004 1080.000028 C 75.552082 1080.000028 -0.00000466667 1004.447941 -0.00000466667 911.250019 L -0.00000466667 168.749982 C -0.00000466667 75.55206 75.552082 -0.0000266667 168.750004 -0.0000266667 Z M 168.750004 -0.0000266667 " stroke="#000000" stroke-width="94" stroke-opacity="1" stroke-miterlimit="4"/></g><g fill="#000000" fill-opacity="1"><g transform="translate(76.210891, 617.630074)"><g><path d="M 561.613281 -168.484375 C 602.175781 -188.765625 624.015625 -221.523438 624.015625 -265.207031 C 624.015625 -344.769531 556.152344 -390.007812 436.03125 -390.007812 L 39 -390.007812 L 39 0 L 257.40625 0 L 257.40625 -144.304688 L 351.007812 -144.304688 C 398.589844 -144.304688 425.109375 -127.144531 425.109375 -95.941406 L 425.109375 0 L 620.113281 0 L 620.113281 -63.179688 C 620.113281 -110.761719 599.835938 -146.644531 561.613281 -168.484375 Z M 382.210938 -245.707031 L 257.40625 -245.707031 L 257.40625 -280.808594 L 382.210938 -280.808594 C 411.851562 -280.808594 429.011719 -274.566406 429.011719 -262.867188 C 429.011719 -251.945312 411.851562 -245.707031 382.210938 -245.707031 Z M 382.210938 -245.707031 "/></g></g></g><g clip-path="url(#2526c55abc)"><g clip-path="url(#692397370c)"><path fill="#ff3131" d="M 283.5 412.730469 L 526.5 412.730469 L 526.5 625.355469 L 283.5 625.355469 Z M 283.5 412.730469 " fill-opacity="1" fill-rule="nonzero"/></g></g></svg>