<svg xmlns="http://www.w3.org/2000/svg" xmlns:xlink="http://www.w3.org/1999/xlink" width="1080" zoomAndPan="magnify" viewBox="0 0 810 809.999993" height="1080" preserveAspectRatio="xMidYMid meet" version="1.0"><defs><g/><clipPath id="8599281bbd"><path d="M 126.5625 0 L 683.4375 0 C 753.335938 0 810 56.664062 810 126.5625 L 810 683.4375 C 810 753.335938 753.335938 810 683.4375 810 L 126.5625 810 C 56.664062 810 0 753.335938 0 683.4375 L 0 126.5625 C 0 56.664062 56.664062 0 126.5625 0 Z M 126.5625 0 " clip-rule="nonzero"/></clipPath><clipPath id="0ca0154eb4"><path d="M 283 412 L 527 412 L 527 625.355469 L 283 625.355469 Z M 283 412 " clip-rule="nonzero"/></clipPath><clipPath id="e2ca89add2"><path d="M 293.132812 446.679688 C 273.429688 479.140625 287.3125 510.734375 304.753906 527.503906 L 406.75 625.355469 L 506.589844 527.851562 C 522.8125 509.816406 529.03125 490.679688 525.578125 469.375 C 520.804688 439.902344 496.519531 417.035156 466.515625 413.769531 C 448.113281 411.789062 430.339844 416.996094 416.464844 428.523438 C 412.730469 431.628906 409.394531 435.09375 406.484375 438.863281 C 403.035156 434.574219 398.988281 430.648438 394.410156 427.167969 C 378.457031 415.042969 358.148438 410.230469 338.640625 413.972656 C 320.164062 417.542969 303.582031 429.460938 293.132812 446.679688 Z M 293.132812 446.679688 " clip-rule="nonzero"/></clipPath></defs><g clip-path="url(#8599281bbd)"><path stroke-linecap="butt" transform="matrix(0.75, 0, 0, 0.75, 0.0000035, 0.00002)" fill="none" stroke-linejoin="miter" d="M 168.750004 -0.0000266667 L 911.250041 -0.0000266667 C 1004.447963 -0.0000266667 1080.00005 75.55206 1080.00005 168.749982 L 1080.00005 911.250019 C 1080.00005 1004.447941 1004.447963 1080.000028 911.250041 1080.000028 L 168.750004 1080.000028 C 75.552082 1080.000028 -0.00000466667 1004.447941 -0.00000466667 911.250019 L -0.00000466667 168.749982 C -0.00000466667 75.55206 75.552082 -0.0000266667 168.750004 -0.0000266667 Z M 168.750004 -0.0000266667 " stroke="#ffffff" stroke-width="94" stroke-opacity="1" stroke-miterlimit="4"/></g><g fill="#ffffff" fill-opacity="1"><g transform="translate(76.224609, 619.865848)"><g><path d="M 561.609375 -168.480469 C 602.167969 -188.761719 624.007812 -221.523438 624.007812 -265.203125 C 624.007812 -344.765625 556.148438 -390.003906 436.027344 -390.003906 L 39 -390.003906 L 39 0 L 257.402344 0 L 257.402344 -144.300781 L 351.003906 -144.300781 C 398.585938 -144.300781 425.105469 -127.140625 425.105469 -95.941406 L 425.105469 0 L 620.109375 0 L 620.109375 -63.179688 C 620.109375 -110.761719 599.828125 -146.640625 561.609375 -168.480469 Z M 382.207031 -245.703125 L 257.402344 -245.703125 L 257.402344 -280.804688 L 382.207031 -280.804688 C 411.84375 -280.804688 429.007812 -274.5625 429.007812 -262.863281 C 429.007812 -251.945312 411.84375 -245.703125 382.207031 -245.703125 Z M 382.207031 -245.703125 "/></g></g></g><g clip-path="url(#0ca0154eb4)"><g clip-path="url(#e2ca89add2)"><path fill="#ff3131" d="M 283.5 412.730469 L 526.5 412.730469 L 526.5 625.355469 L 283.5 625.355469 Z M 283.5 412.730469 " fill-opacity="1" fill-rule="nonzero"/></g></g></svg>